<?xml version="1.0" encoding="UTF-8"?>
<svg id="Capa_2" data-name="Capa 2" xmlns="http://www.w3.org/2000/svg" viewBox="0 0 240.02 44.95">
  <defs>
    <style>
      .cls-1 {
        fill: #333;
      }
    </style>
  </defs>
  <g id="Grupo_654" data-name="Grupo 654">
    <g>
      <path id="Trazado_920" data-name="Trazado 920" class="cls-1" d="m78.33,14.8c0,.64-.51,1.15-1.15,1.15h-7.67c-3.6,0-6.52,2.92-6.52,6.52s2.92,6.52,6.52,6.52h3.83c.64,0,1.15.51,1.15,1.15,0,.64-.51,1.15-1.15,1.15h-3.83c-4.87,0-8.82-3.95-8.82-8.82s3.95-8.82,8.82-8.82h7.67c.64,0,1.15.51,1.15,1.15h0"/>
      <path id="Trazado_921" data-name="Trazado 921" class="cls-1" d="m96.86,14.8c0,.64-.51,1.15-1.15,1.15h-7.67c-3.6,0-6.52,2.92-6.52,6.52s2.92,6.52,6.52,6.52h3.83c.64,0,1.15.51,1.15,1.15,0,.64-.51,1.15-1.15,1.15h-3.83c-4.87,0-8.82-3.95-8.82-8.82s3.95-8.82,8.82-8.82h7.67c.64,0,1.15.51,1.15,1.15h0"/>
      <path id="Trazado_922" data-name="Trazado 922" class="cls-1" d="m115.39,26.28c0,2.75-2.23,4.98-4.98,4.98h-11.5c-.64,0-1.15-.51-1.15-1.15,0-.64.51-1.15,1.15-1.15h11.5c1.48-.03,2.66-1.25,2.63-2.74-.03-1.44-1.19-2.6-2.63-2.63h-7.67c-2.75,0-4.98-2.23-4.98-4.98s2.23-4.98,4.98-4.98h7.67c.64,0,1.15.51,1.15,1.15,0,.64-.51,1.15-1.15,1.15h-7.67c-1.48.03-2.66,1.25-2.63,2.74.03,1.44,1.19,2.6,2.63,2.63h7.67c2.75,0,4.98,2.23,4.98,4.98"/>
      <path id="Trazado_923" data-name="Trazado 923" class="cls-1" d="m123.38,14.78v15.33c0,.64-.51,1.15-1.15,1.15s-1.15-.51-1.15-1.15v-14.18h-6.52c-.64,0-1.15-.52-1.15-1.15,0-.63.51-1.15,1.15-1.15h7.67c.64,0,1.15.51,1.15,1.15m7.67,0c0,.64-.51,1.15-1.15,1.15h-3.48c-.64,0-1.15-.52-1.15-1.15,0-.63.51-1.15,1.15-1.15h3.48c.64,0,1.15.51,1.15,1.15"/>
      <path id="Trazado_924" data-name="Trazado 924" class="cls-1" d="m132.33,14.94c0-.64.51-1.15,1.15-1.15h15.34c.64,0,1.15.52,1.15,1.15,0,.63-.51,1.15-1.15,1.15h-15.33c-.64,0-1.15-.51-1.15-1.15m17.63,15.33c0,.64-.51,1.15-1.15,1.15h-15.33c-.64,0-1.15-.51-1.15-1.15v-5.06c0-2.07,1.68-3.75,3.76-3.76h5.06c.64,0,1.15.52,1.15,1.15,0,.63-.51,1.15-1.15,1.15h-5.06c-.8,0-1.46.65-1.46,1.46v3.91h14.18c.64,0,1.15.51,1.15,1.15"/>
      <path id="Trazado_925" data-name="Trazado 925" class="cls-1" d="m168.5,14.8c0,.64-.51,1.15-1.15,1.15h-7.67c-3.6,0-6.52,2.92-6.52,6.52s2.92,6.52,6.52,6.52h3.83c.64,0,1.15.51,1.15,1.15,0,.64-.51,1.15-1.15,1.15h-3.83c-4.87,0-8.82-3.95-8.82-8.82s3.95-8.82,8.82-8.82h7.67c.64,0,1.15.51,1.15,1.15"/>
      <path id="Trazado_926" data-name="Trazado 926" class="cls-1" d="m183.2,22.46c0,.63-.52,1.15-1.15,1.15h-7.13c-1.78,0-3.22,1.44-3.22,3.22v3.3c0,.64-.51,1.15-1.15,1.15s-1.15-.51-1.15-1.15v-15.8c0-.64.51-1.15,1.15-1.15s1.15.51,1.15,1.15v8.02c.94-.68,2.06-1.04,3.22-1.04h7.13c.64,0,1.15.51,1.15,1.15m3.83-7.78v15.45c0,.64-.51,1.15-1.15,1.15s-1.15-.51-1.15-1.15v-15.45c0-.64.51-1.15,1.15-1.15s1.15.51,1.15,1.15h0"/>
      <path id="Trazado_927" data-name="Trazado 927" class="cls-1" d="m189.63,31.28c-.17,0-.34-.04-.5-.11-.15-.07-.3-.16-.42-.28-.26-.24-.4-.58-.4-.94,0-.17.04-.34.11-.5.07-.16.17-.3.29-.42.12-.12.26-.22.42-.29.16-.07.33-.11.5-.11.18,0,.36.03.53.11.16.07.3.17.42.29.12.12.21.26.27.42.07.16.1.33.1.5,0,.18-.03.36-.1.53-.06.15-.15.29-.27.41-.12.11-.27.21-.42.28-.17.07-.35.11-.53.11"/>
      <path id="Trazado_928" data-name="Trazado 928" class="cls-1" d="m211.78,28.98h-3.05v-14.3c0-.64-.51-1.15-1.15-1.15h-4.08c-.64,0-1.15.52-1.15,1.15,0,.02,0,.04,0,.06.06.63.59,1.1,1.21,1.09h2.86v13.15h-3.05c-.64,0-1.15.51-1.15,1.15,0,.64.51,1.15,1.15,1.15h8.4c.64,0,1.15-.52,1.15-1.15,0-.63-.51-1.15-1.15-1.15"/>
      <path id="Trazado_929" data-name="Trazado 929" class="cls-1" d="m210.71,15.83h1.07c.64,0,1.15-.51,1.15-1.15,0-.64-.51-1.15-1.15-1.15h-1.14c-.64,0-1.15.52-1.15,1.15,0,.02,0,.03,0,.05.05.63.59,1.11,1.22,1.1"/>
      <path id="Trazado_930" data-name="Trazado 930" class="cls-1" d="m231.82,17.86v9.2c0,2.33-1.89,4.21-4.22,4.22h-9.2c-2.33,0-4.22-1.89-4.22-4.22v-9.2c0-2.33,1.89-4.21,4.22-4.22h9.2c2.33,0,4.21,1.89,4.22,4.22m-2.3,0c0-1.06-.86-1.92-1.92-1.92h-9.2c-1.06,0-1.92.86-1.92,1.92v9.2c0,1.06.86,1.92,1.92,1.92h9.2c1.06,0,1.92-.86,1.92-1.92v-9.2Z"/>
      <path id="Trazado_931" data-name="Trazado 931" class="cls-1" d="m200.73,37.64h-5.19c-.83,0-1.51-.67-1.51-1.51V8.6c0-.83.67-1.5,1.51-1.51h5.19c.83-.02,1.52.64,1.54,1.47s-.64,1.52-1.47,1.54c-.03,0-.05,0-.08,0h-3.68v24.52h3.68c.83-.02,1.52.64,1.54,1.47.02.83-.64,1.52-1.47,1.54-.03,0-.05,0-.08,0"/>
      <path id="Trazado_932" data-name="Trazado 932" class="cls-1" d="m233.33,7.1h5.19c.83,0,1.51.67,1.51,1.51h0v27.54c0,.83-.67,1.51-1.51,1.51h-5.19c-.83.02-1.52-.64-1.54-1.47-.02-.83.64-1.52,1.47-1.54.03,0,.05,0,.08,0h3.68V10.11h-3.68c-.83.02-1.52-.64-1.54-1.47s.64-1.52,1.47-1.54c.03,0,.05,0,.08,0"/>
      <path id="Trazado_933" data-name="Trazado 933" class="cls-1" d="m54.04,24.79l-.04-.19c-1.17-4.84-5.33-8.37-10.29-8.75C43.53,7.04,36.34,0,27.54,0h-.47c-.07,0-.14,0-.22.01-3.35.13-6.58,1.32-9.23,3.39-2.15,1.67-3.85,3.85-4.93,6.35-.48,1.1-.83,2.26-1.05,3.44-1.79.15-3.54.68-5.11,1.56C.44,18.08-1.79,25.72,1.55,31.81c.93,1.7,2.24,3.16,3.83,4.27,2.14,1.51,4.68,2.32,7.3,2.33,1.45,0,2.88-.26,4.23-.76.28-.1.55-.21.81-.33,1.3.61,2.72.93,4.16.93h0c2.28.01,4.48-.78,6.22-2.25.11.03.22.07.32.1.49.12,1,.17,1.51.16.05,0,.1,0,.15-.01s.11,0,.17,0h.07c1.66,0,3.01,1.34,3.02,3,0,.35-.06.7-.18,1.03-.29.82-.94,1.46-1.76,1.74-.79.26-1.22,1.11-.96,1.9.26.79,1.11,1.22,1.9.96.03,0,.06-.02.08-.03,3.1-1.15,4.69-4.6,3.53-7.71-.89-2.39-3.19-3.96-5.73-3.91h-.03c-.13,0-.26.01-.39.02-.24,0-.47-.02-.7-.08-.23-.06-.46-.14-.67-.25-.83-.41-1.41-1.21-1.56-2.12-.18-.92.09-1.87.72-2.56.56-.62.51-1.57-.1-2.13-.59-.54-1.5-.52-2.07.04-1.3,1.38-1.87,3.31-1.52,5.18.2,1.1.7,2.12,1.44,2.96-1.05.63-2.25.97-3.48.96h0c-1.79.02-3.5-.7-4.74-1.99l-.04-.04-.8-1.02c-.61-.96-.96-2.06-1.01-3.19-.01-.18-.01-.35,0-.53.08-3.24,2.51-5.95,5.72-6.36.19-.02.37-.08.53-.17.73-.39,1.01-1.3.62-2.04-.31-.58-.95-.89-1.59-.78-4.65.63-8.17,4.54-8.29,9.24-.01.27-.01.55,0,.83.09,1.67.61,3.28,1.52,4.68.02.04.05.07.08.11l.86,1.1s.03.03.04.05c-.71.16-1.43.25-2.15.25-.05,0-.1,0-.16,0-1.92-.05-3.79-.67-5.36-1.78-4.33-3.02-5.4-8.97-2.38-13.3.85-1.21,1.96-2.22,3.26-2.92,1.47-.82,3.12-1.23,4.8-1.22h0c.06,0,.12,0,.18,0,1.69.06,3.34.57,4.76,1.48.71.43,1.64.2,2.07-.51.42-.69.22-1.59-.46-2.04-1.42-.9-3-1.51-4.65-1.79.18-.81.43-1.6.76-2.36.88-2.03,2.26-3.81,4.01-5.17,2.19-1.71,4.87-2.68,7.64-2.76.04,0,.08,0,.12,0h.31c7.26,0,13.16,5.88,13.16,13.14,0,.36-.01.72-.04,1.08-.07.83.53,1.55,1.36,1.63.05,0,.09,0,.14,0h.15s.09,0,.13,0c4.05-.25,7.69,2.44,8.64,6.39l.03.17c.52,2.44-.1,4.99-1.7,6.91-1.51,1.86-3.77,2.94-6.16,2.94h-.16c-.83.01-1.49.7-1.48,1.53.01.8.65,1.45,1.46,1.48h.19c3.29,0,6.41-1.49,8.48-4.04,2.18-2.63,3.04-6.11,2.32-9.45"/>
    </g>
  </g>
</svg>