<svg id="Capa_2" data-name="Capa 2" xmlns="http://www.w3.org/2000/svg" viewBox="0 0 240.02 44.95"><defs><style>.cls-1{fill:#333}</style></defs><g id="Grupo_654" data-name="Grupo 654"><path id="Trazado_920" data-name="Trazado 920" class="cls-1" d="M78.33 14.8c0 .64-.51 1.15-1.15 1.15h-7.67a6.521 6.521 0 0 0 0 13.04h3.83c.64 0 1.15.51 1.15 1.15 0 .64-.51 1.15-1.15 1.15h-3.83c-4.87 0-8.82-3.95-8.82-8.82s3.95-8.82 8.82-8.82h7.67c.64 0 1.15.51 1.15 1.15"/><path id="Trazado_921" data-name="Trazado 921" class="cls-1" d="M96.86 14.8c0 .64-.51 1.15-1.15 1.15h-7.67a6.521 6.521 0 0 0 0 13.04h3.83c.64 0 1.15.51 1.15 1.15 0 .64-.51 1.15-1.15 1.15h-3.83c-4.87 0-8.82-3.95-8.82-8.82s3.95-8.82 8.82-8.82h7.67c.64 0 1.15.51 1.15 1.15"/><path id="Trazado_922" data-name="Trazado 922" class="cls-1" d="M115.39 26.28a4.98 4.98 0 0 1-4.98 4.98h-11.5c-.64 0-1.15-.51-1.15-1.15 0-.64.51-1.15 1.15-1.15h11.5a2.686 2.686 0 0 0 0-5.37h-7.67a4.98 4.98 0 0 1 0-9.96h7.67c.64 0 1.15.51 1.15 1.15 0 .64-.51 1.15-1.15 1.15h-7.67a2.686 2.686 0 0 0 0 5.37h7.67a4.98 4.98 0 0 1 4.98 4.98"/><path id="Trazado_923" data-name="Trazado 923" class="cls-1" d="M123.38 14.78v15.33c0 .64-.51 1.15-1.15 1.15s-1.15-.51-1.15-1.15V15.93h-6.52a1.15 1.15 0 0 1 0-2.3h7.67c.64 0 1.15.51 1.15 1.15m7.67 0c0 .64-.51 1.15-1.15 1.15h-3.48a1.15 1.15 0 0 1 0-2.3h3.48c.64 0 1.15.51 1.15 1.15"/><path id="Trazado_924" data-name="Trazado 924" class="cls-1" d="M132.33 14.94c0-.64.51-1.15 1.15-1.15h15.34a1.15 1.15 0 0 1 0 2.3h-15.33c-.64 0-1.15-.51-1.15-1.15m17.63 15.33c0 .64-.51 1.15-1.15 1.15h-15.33c-.64 0-1.15-.51-1.15-1.15v-5.06c0-2.07 1.68-3.75 3.76-3.76h5.06a1.15 1.15 0 0 1 0 2.3h-5.06c-.8 0-1.46.65-1.46 1.46v3.91h14.18c.64 0 1.15.51 1.15 1.15"/><path id="Trazado_925" data-name="Trazado 925" class="cls-1" d="M168.5 14.8c0 .64-.51 1.15-1.15 1.15h-7.67a6.521 6.521 0 0 0 0 13.04h3.83c.64 0 1.15.51 1.15 1.15 0 .64-.51 1.15-1.15 1.15h-3.83c-4.87 0-8.82-3.95-8.82-8.82s3.95-8.82 8.82-8.82h7.67c.64 0 1.15.51 1.15 1.15"/><path id="Trazado_926" data-name="Trazado 926" class="cls-1" d="M183.2 22.46c0 .63-.52 1.15-1.15 1.15h-7.13c-1.78 0-3.22 1.44-3.22 3.22v3.3c0 .64-.51 1.15-1.15 1.15s-1.15-.51-1.15-1.15v-15.8c0-.64.51-1.15 1.15-1.15s1.15.51 1.15 1.15v8.02c.94-.68 2.06-1.04 3.22-1.04h7.13c.64 0 1.15.51 1.15 1.15m3.83-7.78v15.45c0 .64-.51 1.15-1.15 1.15s-1.15-.51-1.15-1.15V14.68c0-.64.51-1.15 1.15-1.15s1.15.51 1.15 1.15"/><path id="Trazado_927" data-name="Trazado 927" class="cls-1" d="M189.63 31.28c-.17 0-.34-.04-.5-.11-.15-.07-.3-.16-.42-.28a1.269 1.269 0 0 1-.29-1.44c.07-.16.17-.3.29-.42.12-.12.26-.22.42-.29a1.252 1.252 0 0 1 1.03 0c.16.07.3.17.42.29.12.12.21.26.27.42a1.386 1.386 0 0 1 0 1.03c-.06.15-.15.29-.27.41-.12.11-.27.21-.42.28-.17.07-.35.11-.53.11"/><path id="Trazado_928" data-name="Trazado 928" class="cls-1" d="M211.78 28.98h-3.05v-14.3c0-.64-.51-1.15-1.15-1.15h-4.08c-.64 0-1.15.52-1.15 1.15v.06c.06.63.59 1.1 1.21 1.09h2.86v13.15h-3.05c-.64 0-1.15.51-1.15 1.15 0 .64.51 1.15 1.15 1.15h8.4a1.15 1.15 0 0 0 0-2.3"/><path id="Trazado_929" data-name="Trazado 929" class="cls-1" d="M210.71 15.83h1.07c.64 0 1.15-.51 1.15-1.15 0-.64-.51-1.15-1.15-1.15h-1.14c-.64 0-1.15.52-1.15 1.15v.05c.05.63.59 1.11 1.22 1.1"/><path id="Trazado_930" data-name="Trazado 930" class="cls-1" d="M231.82 17.86v9.2c0 2.33-1.89 4.21-4.22 4.22h-9.2a4.22 4.22 0 0 1-4.22-4.22v-9.2c0-2.33 1.89-4.21 4.22-4.22h9.2c2.33 0 4.21 1.89 4.22 4.22m-2.3 0c0-1.06-.86-1.92-1.92-1.92h-9.2c-1.06 0-1.92.86-1.92 1.92v9.2c0 1.06.86 1.92 1.92 1.92h9.2c1.06 0 1.92-.86 1.92-1.92v-9.2Z"/><path id="Trazado_931" data-name="Trazado 931" class="cls-1" d="M200.73 37.64h-5.19c-.83 0-1.51-.67-1.51-1.51V8.6c0-.83.67-1.5 1.51-1.51h5.19c.83-.02 1.52.64 1.54 1.47s-.64 1.52-1.47 1.54H197.04v24.52h3.68c.83-.02 1.52.64 1.54 1.47.02.83-.64 1.52-1.47 1.54h-.08"/><path id="Trazado_932" data-name="Trazado 932" class="cls-1" d="M233.33 7.1h5.19c.83 0 1.51.67 1.51 1.51v27.54c0 .83-.67 1.51-1.51 1.51h-5.19c-.83.02-1.52-.64-1.54-1.47-.02-.83.64-1.52 1.47-1.54H237.02V10.11h-3.68c-.83.02-1.52-.64-1.54-1.47s.64-1.52 1.47-1.54h.08"/><path id="Trazado_933" data-name="Trazado 933" class="cls-1" d="M54.04 24.79 54 24.6a11.488 11.488 0 0 0-10.29-8.75C43.53 7.04 36.34 0 27.54 0h-.47c-.07 0-.14 0-.22.01-3.35.13-6.58 1.32-9.23 3.39a16.162 16.162 0 0 0-4.93 6.35c-.48 1.1-.83 2.26-1.05 3.44-1.79.15-3.54.68-5.11 1.56-6.09 3.33-8.32 10.97-4.98 17.06.93 1.7 2.24 3.16 3.83 4.27 2.14 1.51 4.68 2.32 7.3 2.33 1.45 0 2.88-.26 4.23-.76.28-.1.55-.21.81-.33 1.3.61 2.72.93 4.16.93 2.28.01 4.48-.78 6.22-2.25.11.03.22.07.32.1.49.12 1 .17 1.51.16.05 0 .1 0 .15-.01s.11 0 .17 0h.07a3.02 3.02 0 0 1 3.02 3c0 .35-.06.7-.18 1.03a2.84 2.84 0 0 1-1.76 1.74 1.505 1.505 0 1 0 .94 2.86c.03 0 .06-.02.08-.03a5.99 5.99 0 0 0 3.53-7.71 5.998 5.998 0 0 0-5.73-3.91h-.03c-.13 0-.26.01-.39.02-.24 0-.47-.02-.7-.08-.23-.06-.46-.14-.67-.25a2.894 2.894 0 0 1-1.56-2.12c-.18-.92.09-1.87.72-2.56.56-.62.51-1.57-.1-2.13-.59-.54-1.5-.52-2.07.04a5.967 5.967 0 0 0-1.52 5.18c.2 1.1.7 2.12 1.44 2.96-1.05.63-2.25.97-3.48.96-1.79.02-3.5-.7-4.74-1.99l-.04-.04-.8-1.02c-.61-.96-.96-2.06-1.01-3.19-.01-.18-.01-.35 0-.53.08-3.24 2.51-5.95 5.72-6.36.19-.02.37-.08.53-.17a1.511 1.511 0 0 0-.97-2.82 9.577 9.577 0 0 0-8.29 9.24c-.01.27-.01.55 0 .83a9.51 9.51 0 0 0 1.52 4.68c.02.04.05.07.08.11l.86 1.1s.03.03.04.05c-.71.16-1.43.25-2.15.25h-.16a9.734 9.734 0 0 1-5.36-1.78c-4.33-3.02-5.4-8.97-2.38-13.3a9.515 9.515 0 0 1 3.26-2.92 9.71 9.71 0 0 1 4.8-1.22h.18c1.69.06 3.34.57 4.76 1.48.71.43 1.64.2 2.07-.51.42-.69.22-1.59-.46-2.04-1.42-.9-3-1.51-4.65-1.79.18-.81.43-1.6.76-2.36.88-2.03 2.26-3.81 4.01-5.17 2.19-1.71 4.87-2.68 7.64-2.76h.43c7.26 0 13.16 5.88 13.16 13.14 0 .36-.01.72-.04 1.08-.07.83.53 1.55 1.36 1.63H42.41a8.353 8.353 0 0 1 8.64 6.39l.03.17c.52 2.44-.1 4.99-1.7 6.91a7.933 7.933 0 0 1-6.16 2.94h-.16a1.506 1.506 0 0 0-.02 3.01h.19c3.29 0 6.41-1.49 8.48-4.04a11.13 11.13 0 0 0 2.32-9.45"/></g></svg>