<svg id="Capa_2" data-name="Capa 2" xmlns="http://www.w3.org/2000/svg" viewBox="0 0 1221.14 392.01"><defs><style>.cls-1,.cls-2{fill:#333}.cls-2{fill-rule:evenodd}</style></defs><g id="Capa_1-2" data-name="Capa 1"><path class="cls-1" d="M495.63 5.38h8.63v381.25h-8.63zM0 311.19h14.21v79.64H0v-79.64ZM68.06 381.65c-4.05 6.18-9.32 9.19-16.14 9.19-8.07 0-14.76-2.59-19.9-7.91-5.14-5.3-7.78-12.2-7.78-20.69s2.35-16.25 7.22-22.72c5.15-7.06 11.97-10.5 20.19-10.5 4.86 0 10.43 1.88 16.41 5.47v-19.83l13.92-5.18v81.24H68.06v-9.06Zm-5.01-36.08c-2.63-2.16-5.41-3.16-8.33-3.16-4.89 0-8.36 1.01-10.72 3.16-3.77 3.29-5.59 8.92-5.59 16.67 0 5.19 1.41 9.2 4.32 12.23 2.93 3.01 6.98 4.6 11.99 4.6 3.07 0 5.84-1.44 8.48-4.17 1.83-1.88 3.33-4.16 4.87-7.05v-15.38c-.69-1.57-2.36-3.89-5.01-6.89ZM109.54 375.76c2.21 2.01 4.73 3.3 7.36 3.73 1.27.29 2.66.29 4.17.29 4.6 0 8.23-1.44 11.02-4.31l9.74 7.46c-5.15 6.05-12.12 9.08-20.76 9.08s-16.43-2.88-21.83-8.49c-5.43-5.75-8.22-13.37-8.22-22.87 0-10.2 2.64-18.1 7.93-24.01 5.31-5.89 12.8-8.92 22.55-8.92s16.71 4.02 21.86 12.38c3.75 6.03 5.55 14.94 5.72 26.6h-43.71c-.14 3.45 1.24 6.47 4.17 9.06Zm.43-31.92c-3.2 3.15-4.74 7.18-4.74 12.07h29.93c0-4.89-1.4-8.92-4.17-11.93-2.79-3.03-6.27-4.61-10.43-4.61s-7.68 1.45-10.58 4.47ZM164.24 383.52c-5.44-5.75-8.08-13.53-8.08-23.3 0-9.05 2.8-16.69 8.51-22.72 5.71-6.04 12.81-9.06 21.56-9.06 7.66 0 14.33 2.46 19.77 7.33l-10.44 8.07c-2.52-2.01-5.58-3.03-9.34-3.03-5.13 0-9.19 2-11.97 6.18-2.35 3.59-3.62 8.05-3.62 13.38 0 12.94 5.29 19.41 15.72 19.41 4.19 0 7.53-1.28 10.18-3.74l11.54 7.19c-5.43 5.91-12.81 8.78-21.86 8.78s-16.56-2.88-21.99-8.49ZM242.46 342.55c-3.33 0-6.12 1.14-8.34 3.44-2.38 2.46-3.49 5.32-3.49 8.75v36.09h-12.67v-61.25h12.67v7.2c4.88-5.74 9.89-8.64 14.89-8.64 2.65 0 5 .57 7.09 1.59l-4.86 14.38c-2.23-1.01-4.04-1.58-5.3-1.58ZM275.87 375.76c2.23 2.01 4.75 3.3 7.38 3.73 1.25.29 2.64.29 4.17.29 4.6 0 8.21-1.44 10.98-4.31l9.77 7.46c-5.17 6.05-12.11 9.08-20.75 9.08-9.05 0-16.42-2.88-21.86-8.49-5.41-5.75-8.21-13.37-8.21-22.87 0-10.2 2.65-18.1 7.93-24.01 5.3-5.89 12.81-8.92 22.56-8.92s16.69 4.02 21.84 12.38c3.76 6.03 5.56 14.94 5.69 26.6h-43.71c-.13 3.45 1.26 6.47 4.19 9.06Zm.41-31.92c-3.19 3.15-4.72 7.18-4.72 12.07h29.91c0-4.89-1.38-8.92-4.16-11.93-2.78-3.03-6.26-4.61-10.44-4.61s-7.66 1.45-10.59 4.47ZM362.44 385.54c-6.83 3.59-13.21 5.46-18.93 5.46-6.53 0-11.69-1.72-15.3-5.33-3.64-3.59-5.42-8.63-5.42-15.23 0-7.21 2.35-12.68 7.22-16.56 4.32-3.45 10.17-5.18 17.55-5.18 4.85 0 9.74 1.44 14.88 4.33-.14-10.22-4.87-15.23-14.18-15.23-4.88 0-9.07 1.29-12.53 3.73l-4.46-8.34c4.59-4.17 10.84-6.18 19.08-6.18 7.23 0 13.2 1.71 17.81 5.02 5.28 3.89 7.93 9.35 7.93 16.4v42.12h-13.65v-5.02Zm-3.61-24.16c-2.38-1.31-4.89-1.86-7.52-1.86-9.6 0-14.47 3.44-14.47 10.47 0 3.02 1.52 5.47 4.44 7.05 2.24 1.29 5.03 1.87 8.36 1.87 1.53 0 4.04-.71 7.24-2.02 3.62-1.43 5.43-2.72 5.43-3.89v-7.75c0-1.31-1.12-2.6-3.47-3.88Z"/><path class="cls-2" d="m281.48 146.4-25.57-76.38-.22-.04-.04-.11-47.87-9.43-66.34-13.21-.11.12-.17-.02-45 53.88-31.07 37.01.05.1-.13.18 25.18 74.64 12.97 38.78h-.04c26.95 43 79.97 14.71 114.14 23.45.14-.19.25-.37.37-.56h.02l.1-.11.13.03c.22.05.41.12.64.18 21.57-28.71 80.14-40.48 75.51-91.49l-.04.06-12.52-37.09Zm-47.74-.43c.46 1.74.84 3.5 1.13 5.27v.03c.31 1.81.52 3.65.64 5.5.15 1.84.19 3.65.15 5.48v.32c-.05 1.7-.18 3.4-.37 5.12 0 .28-.08.54-.11.8a56.99 56.99 0 0 1-.75 4.71c-.07.31-.15.63-.23.97-.33 1.53-.72 3.06-1.2 4.58-.07.19-.13.38-.19.56a53.1 53.1 0 0 1-1.78 4.83c0 .05-.02.08-.03.11-1.47 3.47-3.25 6.8-5.39 9.97-.04.03-.07.07-.07.07a57.032 57.032 0 0 1-3.39 4.47c-.15.2-.33.39-.5.58a54.167 54.167 0 0 1-3.21 3.5c-.42.38-.84.77-1.26 1.17-.91.85-1.81 1.64-2.77 2.44-.61.51-1.24.99-1.87 1.44-.81.6-1.6 1.19-2.43 1.74-.77.51-1.55 1.01-2.35 1.47-.75.46-1.53.9-2.28 1.33-.84.46-1.72.89-2.57 1.28-.8.35-1.58.72-2.39 1.06-.85.36-1.71.68-2.6.99-.83.33-1.7.61-2.58.88-.84.25-1.68.48-2.53.7-.91.22-1.84.45-2.77.62-.86.19-1.71.31-2.59.46-.89.13-1.81.24-2.72.34-.98.09-1.96.14-2.96.18-.77.02-1.54.06-2.34.06-1.23 0-2.44-.06-3.67-.13-.54-.05-1.09-.09-1.63-.13-1.56-.15-3.1-.38-4.68-.67-.23-.06-.47-.1-.7-.13-1.83-.36-3.61-.82-5.36-1.36-.02-.01-.05-.04-.05-.04-3.63-1.12-7.08-2.6-10.3-4.38 0 0-.02-.01-.05-.03-1.49-.83-2.93-1.74-4.36-2.71-.15-.09-.27-.15-.41-.25-1.31-.92-2.57-1.9-3.77-2.9a8.36 8.36 0 0 1-.66-.55c-1.25-1.04-2.39-2.13-3.51-3.27-.17-.16-.33-.3-.5-.48a63.204 63.204 0 0 1-3.42-3.88.436.436 0 0 0-.13-.14c-3.38-4.26-6.17-9.01-8.31-14.07-.01-.07-.05-.15-.06-.21-.66-1.58-1.23-3.17-1.74-4.81-.05-.2-.14-.43-.21-.65-.44-1.5-.83-3.02-1.15-4.56-.09-.34-.16-.67-.23-1.02-.29-1.44-.51-2.91-.7-4.41-.05-.4-.1-.83-.12-1.24-.16-1.5-.25-3.02-.29-4.55v-1.09c-.01-1.65.05-3.32.17-5 0-.2.04-.41.04-.6.18-1.89.43-3.79.77-5.71 1.09-5.75 2.95-11.13 5.49-16.06.06-.14.12-.28.21-.44.67-1.3 1.43-2.56 2.19-3.78.26-.4.51-.81.77-1.24.66-.99 1.37-1.95 2.08-2.92.45-.58.84-1.17 1.31-1.74.72-.87 1.5-1.72 2.25-2.56.5-.55 1-1.1 1.49-1.62.86-.87 1.76-1.68 2.66-2.5.47-.41.92-.81 1.37-1.22.99-.8 2-1.57 3.02-2.32.46-.33.91-.65 1.34-.96 1.06-.71 2.13-1.38 3.19-2.02.52-.29 1.04-.6 1.55-.9 1.02-.53 2.05-1.03 3.09-1.54.66-.3 1.35-.62 2.02-.91.9-.38 1.81-.71 2.72-1.04.87-.32 1.75-.62 2.63-.87.75-.23 1.52-.43 2.29-.64 1.06-.26 2.12-.52 3.18-.73.63-.11 1.28-.2 1.91-.3 1.19-.19 2.37-.36 3.56-.45.6-.06 1.18-.06 1.77-.12 1.23-.08 2.44-.11 3.66-.09.64 0 1.26.04 1.92.07 1.16.08 2.32.13 3.48.26.73.09 1.49.2 2.22.33 1.09.16 2.17.33 3.24.54.73.19 1.43.37 2.15.56 1.1.29 2.22.58 3.31.93.51.15 1.01.37 1.47.53 1.31.48 2.57.93 3.86 1.49.22.11.4.23.63.31 1.5.71 2.98 1.44 4.46 2.29v.02c3.25 1.87 6.38 4.1 9.29 6.71l.08.05a60.88 60.88 0 0 1 3.95 3.92c.16.18.32.34.48.54 1.07 1.2 2.11 2.45 3.09 3.72.25.32.44.65.68.96.86 1.19 1.68 2.38 2.47 3.65.21.35.45.76.65 1.15a45.15 45.15 0 0 1 2.05 3.82c.18.33.33.69.51 1.03.64 1.38 1.24 2.82 1.77 4.25.09.24.18.47.25.71.57 1.59 1.08 3.17 1.51 4.8.02.1.05.21.06.3ZM300.35 43.14l8.14-5.73-5.54-8.53 4.8-7.72-8.32-3.56-.16-10.14-10.23.55L285.27 0l-7.83 5.67-7.89-4.94-3.86 8.87-9.42-.1.86 9.87-8.08 4.61 5.55 9-4.81 7.25 8.87 4.45-.39 9.23 9.3-1.12 4.68 8.61 8.75-5.58 6.99 4.83 4.09-8.61 9.17-.18-.9-8.72Zm-35.9-15.71c1.72-8.15 9.53-13.3 17.47-11.54 7.87 1.8 12.88 9.87 11.15 18.04s-9.54 13.33-17.44 11.55c-.98-.23-1.93-.55-2.82-.95-6.22-2.86-9.89-9.91-8.36-17.09Z"/><path class="cls-1" d="M642.96 121.86c-3.49-3.18-5.23-8.04-5.23-14.59V81.15c0-6.54 1.74-11.41 5.23-14.59 3.49-3.18 8.85-4.77 16.07-4.77h22.32v5.37h-22.32c-5 0-8.69 1.14-11.07 3.43-2.38 2.29-3.57 5.8-3.57 10.56v10.37h32.23v5.37h-32.23v10.37c0 4.75 1.19 8.27 3.57 10.56 2.38 2.29 6.07 3.43 11.07 3.43h22.88v5.37h-22.88c-7.22 0-12.58-1.59-16.07-4.77ZM696.12 125.89c-2.56-1.17-4.89-3.09-6.99-5.74l3.98-3.43c1.91 2.16 3.8 3.69 5.65 4.58 1.85.9 4.08 1.34 6.67 1.34 3.71 0 6.51-.65 8.43-1.95 1.91-1.3 2.87-3.18 2.87-5.65 0-1.54-.37-2.78-1.11-3.7-.74-.93-2.04-1.73-3.89-2.41-1.85-.68-4.66-1.36-8.43-2.04-8.65-1.54-12.97-5.68-12.97-12.41 0-3.89 1.4-6.93 4.21-9.12 2.81-2.19 6.68-3.29 11.62-3.29 3.52 0 6.59.6 9.22 1.81 2.62 1.2 4.62 2.95 5.97 5.23l-3.98 3.33c-1.42-1.85-3.04-3.21-4.86-4.08-1.82-.86-3.94-1.3-6.34-1.3-3.09 0-5.51.65-7.27 1.94s-2.64 3.09-2.64 5.37c0 2.04.73 3.61 2.18 4.72 1.45 1.11 4 2.04 7.64 2.78 4.26.93 7.58 1.93 9.96 3.01 2.38 1.08 4.08 2.42 5.09 4.03 1.02 1.61 1.53 3.64 1.53 6.11 0 4.14-1.47 7.27-4.4 9.4-2.93 2.13-7.21 3.2-12.83 3.2-3.64 0-6.75-.59-9.31-1.76ZM735.62 123.48c-3.27-2.78-4.91-6.79-4.91-12.04V98.29c0-5.12 1.67-9.11 5-11.95s8-4.26 13.99-4.26c3.64 0 6.79.59 9.45 1.76 2.65 1.17 4.94 2.96 6.85 5.37l-4.26 3.61c-1.73-2.1-3.52-3.58-5.37-4.45-1.85-.86-4.08-1.3-6.67-1.3-4.01 0-7.15.99-9.4 2.96-2.25 1.98-3.38 4.72-3.38 8.24v13.15c0 3.58 1.1 6.34 3.29 8.29 2.19 1.95 5.33 2.92 9.4 2.92 2.78 0 5.19-.46 7.22-1.39 2.04-.93 3.77-2.35 5.19-4.26l4.26 3.61c-1.79 2.41-4.04 4.18-6.76 5.33-2.72 1.14-6.02 1.71-9.91 1.71-6.05 0-10.71-1.39-13.99-4.17ZM812.17 121.49c.4.71 1.19 1.56 2.36 2.55l-4.17 3.61c-1.85-1.05-3.15-2.24-3.89-3.57-.74-1.33-1.11-3.16-1.11-5.51v-.65c-1.54 3.15-3.64 5.56-6.3 7.22-2.66 1.67-5.77 2.5-9.36 2.5-4.51 0-8-1.34-10.47-4.03-2.47-2.69-3.71-6.47-3.71-11.35V83.08h6.21v28.81c0 3.46.85 6.11 2.55 7.96 1.7 1.85 4.09 2.78 7.18 2.78 3.33 0 6.22-1.2 8.66-3.61s4.18-5.71 5.23-9.91V83.08h6.21v35.66c0 1.11.2 2.02.6 2.73ZM850.01 121.44c2.04-.8 3.92-2.1 5.65-3.89l3.89 3.61c-1.98 2.22-4.32 3.86-7.04 4.91-2.72 1.05-6.02 1.57-9.91 1.57-5.93 0-10.54-1.4-13.85-4.21-3.3-2.81-4.96-6.75-4.96-11.81V97.54c0-4.75 1.62-8.5 4.86-11.25s7.7-4.12 13.38-4.12 10.26 1.45 13.38 4.35c3.12 2.9 4.68 7.01 4.68 12.32 0 3.4-.63 5.73-1.9 6.99-1.27 1.27-3.63 1.9-7.08 1.9h-21.12v3.89c0 3.71 1.07 6.47 3.2 8.29 2.13 1.82 5.39 2.73 9.77 2.73 2.65 0 5-.4 7.04-1.2ZM833.2 89.99c-2.13 1.95-3.2 4.58-3.2 7.92v5.28h18.52c2.1 0 3.52-.35 4.26-1.06.74-.71 1.11-2.05 1.11-4.03 0-3.46-1.05-6.16-3.15-8.1-2.1-1.95-5.03-2.92-8.8-2.92s-6.62.97-8.75 2.92ZM871.91 124.08c-.71-1.33-1.06-3.16-1.06-5.51v-50.2c0-1.17-.2-2.11-.6-2.83-.4-.71-1.16-1.5-2.27-2.36l4.08-3.71c1.91 1.05 3.23 2.24 3.94 3.57.71 1.33 1.07 3.17 1.07 5.51v50.2c0 1.11.2 2.02.6 2.73.4.71 1.16 1.53 2.27 2.46l-4.08 3.7c-1.91-1.05-3.23-2.24-3.94-3.57ZM925.45 121.49c.4.71 1.16 1.53 2.27 2.46l-4.17 3.7c-1.54-.87-2.69-1.85-3.43-2.96s-1.17-2.56-1.3-4.35c-1.61 2.35-3.8 4.15-6.58 5.42s-5.9 1.9-9.35 1.9c-4.69 0-8.31-1.1-10.84-3.29-2.53-2.19-3.8-5.36-3.8-9.49 0-3.83 1.33-6.82 3.98-8.98s6.67-3.55 12.04-4.17l7.22-.83c2.04-.25 3.57-.56 4.58-.93 1.02-.37 1.71-.91 2.08-1.62.37-.71.52-1.71.46-3.01-.56-5.74-4.57-8.61-12.04-8.61-2.78 0-5.16.45-7.13 1.34-1.98.9-3.67 2.3-5.09 4.21l-4.26-3.15c2.9-4.69 8.4-7.04 16.49-7.04 5.93 0 10.45 1.27 13.57 3.8 3.12 2.53 4.68 6.17 4.68 10.93v21.95c0 1.11.2 2.02.6 2.73Zm-10.7-1.99c2.65-2.22 3.98-5.16 3.98-8.8v-7.5c-.74.56-1.64.97-2.69 1.25s-2.5.51-4.35.69l-6.85.74c-3.52.43-6.19 1.41-8.01 2.92-1.82 1.51-2.73 3.51-2.73 5.97 0 5.37 3.39 8.06 10.19 8.06 4.32 0 7.81-1.11 10.47-3.33ZM998.62 121.49c.4.71 1.16 1.53 2.27 2.46l-4.08 3.7c-1.54-.87-2.69-1.99-3.43-3.38-.74-1.39-1.17-2.82-1.3-4.31-3.21 5.13-8.12 7.69-14.73 7.69-3.83 0-7.18-.88-10.05-2.64s-5.09-4.24-6.67-7.46c-1.57-3.21-2.36-6.95-2.36-11.21v-2.96c0-4.26.79-8 2.36-11.21 1.57-3.21 3.8-5.7 6.67-7.46s6.22-2.64 10.05-2.64c3.15 0 5.97.62 8.48 1.85 2.5 1.24 4.49 3 5.97 5.28V68.45c0-1.11-.19-2.01-.56-2.69-.37-.68-1.14-1.54-2.32-2.59l4.26-3.61c1.79.99 3.04 2.16 3.75 3.52.71 1.36 1.07 3.21 1.07 5.56v50.11c0 1.11.2 2.02.6 2.73Zm-6.81-24.41c-1.05-3.33-2.66-5.83-4.82-7.5s-5.03-2.5-8.61-2.5c-4.2 0-7.56 1.48-10.1 4.45-2.53 2.96-3.8 6.92-3.8 11.86v2.96c0 4.94 1.26 8.89 3.8 11.86 2.53 2.96 5.9 4.45 10.1 4.45 3.58 0 6.45-.83 8.61-2.5 2.16-1.67 3.77-4.17 4.82-7.5V97.1ZM1035.9 121.44c2.04-.8 3.92-2.1 5.65-3.89l3.89 3.61c-1.98 2.22-4.32 3.86-7.04 4.91-2.72 1.05-6.02 1.57-9.91 1.57-5.93 0-10.54-1.4-13.85-4.21-3.3-2.81-4.96-6.75-4.96-11.81V97.54c0-4.75 1.62-8.5 4.86-11.25s7.7-4.12 13.38-4.12 10.26 1.45 13.38 4.35c3.12 2.9 4.68 7.01 4.68 12.32 0 3.4-.63 5.73-1.9 6.99-1.27 1.27-3.63 1.9-7.08 1.9h-21.12v3.89c0 3.71 1.07 6.47 3.2 8.29 2.13 1.82 5.39 2.73 9.77 2.73 2.65 0 5-.4 7.04-1.2Zm-16.81-31.45c-2.13 1.95-3.2 4.58-3.2 7.92v5.28h18.52c2.1 0 3.52-.35 4.26-1.06.74-.71 1.11-2.05 1.11-4.03 0-3.46-1.05-6.16-3.15-8.1-2.1-1.95-5.03-2.92-8.8-2.92s-6.62.97-8.75 2.92ZM677.32 214.11c.4.71 1.16 1.53 2.27 2.46l-4.08 3.7c-1.54-.87-2.69-1.99-3.43-3.38-.74-1.39-1.17-2.82-1.3-4.31-3.21 5.13-8.12 7.69-14.73 7.69-3.83 0-7.18-.88-10.05-2.64s-5.09-4.24-6.67-7.46c-1.57-3.21-2.36-6.95-2.36-11.21V196c0-4.26.79-8 2.36-11.21 1.57-3.21 3.8-5.7 6.67-7.46s6.22-2.64 10.05-2.64c3.15 0 5.97.62 8.48 1.85 2.5 1.24 4.49 3 5.97 5.28v-20.75c0-1.11-.19-2.01-.56-2.69-.37-.68-1.14-1.54-2.32-2.59l4.26-3.61c1.79.99 3.04 2.16 3.75 3.52.71 1.36 1.07 3.21 1.07 5.56v50.11c0 1.11.2 2.02.6 2.73Zm-6.81-24.41c-1.05-3.33-2.66-5.83-4.82-7.5s-5.03-2.5-8.61-2.5c-4.2 0-7.56 1.48-10.1 4.45-2.53 2.96-3.8 6.92-3.8 11.86v2.96c0 4.94 1.26 8.89 3.8 11.86 2.53 2.96 5.9 4.45 10.1 4.45 3.58 0 6.45-.83 8.61-2.5 2.16-1.67 3.77-4.17 4.82-7.5v-15.56ZM691.26 164.6c-.87-.86-1.3-1.88-1.3-3.06s.43-2.18 1.3-3.01c.86-.83 1.88-1.25 3.06-1.25s2.18.42 3.01 1.25c.83.83 1.25 1.84 1.25 3.01s-.42 2.19-1.25 3.06c-.83.87-1.84 1.3-3.01 1.3s-2.19-.43-3.06-1.3Zm.97 52.1c-.71-1.33-1.07-3.16-1.07-5.51v-35.47h6.21v35.66c0 1.11.2 2.02.6 2.73.4.71 1.16 1.53 2.27 2.46l-4.08 3.7c-1.92-1.05-3.23-2.24-3.94-3.57ZM715.85 218.51c-2.56-1.17-4.89-3.09-6.99-5.74l3.98-3.43c1.91 2.16 3.8 3.69 5.65 4.58 1.85.9 4.08 1.34 6.67 1.34 3.71 0 6.51-.65 8.43-1.95 1.91-1.3 2.87-3.18 2.87-5.65 0-1.54-.37-2.78-1.11-3.7-.74-.93-2.04-1.73-3.89-2.41-1.85-.68-4.66-1.36-8.43-2.04-8.65-1.54-12.97-5.68-12.97-12.41 0-3.89 1.4-6.93 4.21-9.12 2.81-2.19 6.68-3.29 11.62-3.29 3.52 0 6.59.6 9.22 1.81 2.62 1.2 4.62 2.95 5.97 5.23l-3.98 3.33c-1.42-1.85-3.04-3.21-4.86-4.08-1.82-.86-3.94-1.3-6.34-1.3-3.09 0-5.51.65-7.27 1.94s-2.64 3.09-2.64 5.37c0 2.04.73 3.61 2.18 4.72 1.45 1.11 4 2.04 7.64 2.78 4.26.93 7.58 1.93 9.96 3.01 2.38 1.08 4.08 2.42 5.09 4.03 1.02 1.61 1.53 3.64 1.53 6.11 0 4.14-1.47 7.27-4.4 9.4-2.93 2.13-7.21 3.2-12.83 3.2-3.64 0-6.75-.59-9.31-1.76ZM779.43 214.06c2.04-.8 3.92-2.1 5.65-3.89l3.89 3.61c-1.98 2.22-4.32 3.86-7.04 4.91-2.72 1.05-6.02 1.57-9.91 1.57-5.93 0-10.54-1.4-13.85-4.21-3.3-2.81-4.96-6.75-4.96-11.81v-14.08c0-4.75 1.62-8.5 4.86-11.25s7.7-4.12 13.38-4.12 10.26 1.45 13.38 4.35c3.12 2.9 4.68 7.01 4.68 12.32 0 3.4-.63 5.73-1.9 6.99-1.27 1.27-3.63 1.9-7.08 1.9h-21.12v3.89c0 3.71 1.07 6.47 3.2 8.29 2.13 1.82 5.39 2.73 9.77 2.73 2.65 0 5-.4 7.04-1.2Zm-16.81-31.45c-2.13 1.95-3.2 4.58-3.2 7.92v5.28h18.52c2.1 0 3.52-.35 4.26-1.06.74-.71 1.11-2.05 1.11-4.03 0-3.46-1.05-6.16-3.15-8.1-2.1-1.95-5.03-2.92-8.8-2.92s-6.62.97-8.75 2.92ZM832.13 178.63c2.47 2.62 3.71 6.25 3.71 10.88v29.73h-6.21v-28.81c0-3.39-.82-6.03-2.45-7.92-1.64-1.88-3.91-2.82-6.81-2.82-3.33 0-6.22 1.24-8.66 3.7-2.44 2.47-4.18 5.83-5.23 10.1v25.75h-6.21v-35.66c0-1.11-.2-2.02-.6-2.73-.4-.71-1.16-1.53-2.27-2.45l4.08-3.71c1.91 1.05 3.23 2.24 3.94 3.57.71 1.33 1.07 3.17 1.07 5.51v.83c1.54-3.21 3.63-5.66 6.25-7.36 2.62-1.7 5.66-2.55 9.12-2.55 4.38 0 7.81 1.31 10.28 3.94Zm-25.47-17.69c1.42-1.82 3.49-2.73 6.21-2.73 1.3 0 2.46.2 3.47.6 1.02.4 2.21 1 3.57 1.81 1.11.62 2.01 1.06 2.69 1.34.68.28 1.39.42 2.13.42 1.17 0 2.04-.35 2.59-1.07.56-.71.99-1.87 1.3-3.47h4.26c-.19 2.66-.97 4.89-2.36 6.72-1.39 1.82-3.32 2.73-5.79 2.73-1.3 0-2.49-.21-3.57-.65-1.08-.43-2.24-1.02-3.47-1.76-1.11-.62-2.01-1.06-2.69-1.34a5.54 5.54 0 0 0-2.13-.42c-1.3 0-2.24.37-2.82 1.11-.59.74-1.07 1.94-1.44 3.61h-4.26c.12-2.78.89-5.08 2.32-6.9ZM852.28 215.87c-3.24-2.93-4.86-7.05-4.86-12.37v-12.04c0-5.31 1.62-9.43 4.86-12.37 3.24-2.93 7.76-4.4 13.57-4.4s10.33 1.47 13.57 4.4c3.24 2.93 4.86 7.06 4.86 12.37v12.04c0 5.31-1.62 9.43-4.86 12.37-3.24 2.93-7.77 4.4-13.57 4.4s-10.33-1.47-13.57-4.4Zm22.6-3.66c2.13-2.04 3.2-4.94 3.2-8.71v-12.04c0-3.77-1.07-6.67-3.2-8.71-2.13-2.04-5.14-3.06-9.03-3.06s-6.9 1.02-9.03 3.06c-2.13 2.04-3.2 4.94-3.2 8.71v12.04c0 3.77 1.07 6.67 3.2 8.71 2.13 2.04 5.14 3.06 9.03 3.06s6.9-1.02 9.03-3.06ZM954.48 175.72v49.27c0 5.12-1.36 8.94-4.08 11.44-2.72 2.5-6.82 3.75-12.32 3.75h-11.21v-4.91h11.21c6.79 0 10.19-3.46 10.19-10.37v-13.06c-3.03 5.62-8.03 8.43-15 8.43-4.63 0-8.26-1.37-10.88-4.12-2.62-2.75-3.94-6.5-3.94-11.25v-21.21c0-1.11-.2-2.02-.6-2.73-.4-.71-1.16-1.53-2.27-2.45l4.17-3.71c1.85 1.05 3.13 2.24 3.84 3.57.71 1.33 1.07 3.17 1.07 5.51v20.56c0 3.46.88 6.13 2.64 8.01 1.76 1.88 4.25 2.83 7.46 2.83 3.64 0 6.73-1.25 9.26-3.75 2.53-2.5 3.95-5.67 4.26-9.49v-26.3h6.21ZM642.35 308.72c-3.27-2.78-4.91-6.79-4.91-12.04v-13.15c0-5.12 1.67-9.11 5-11.95s8-4.26 13.99-4.26c3.64 0 6.79.59 9.45 1.76 2.65 1.17 4.94 2.96 6.85 5.37l-4.26 3.61c-1.73-2.1-3.52-3.58-5.37-4.45-1.85-.86-4.08-1.3-6.67-1.3-4.01 0-7.15.99-9.4 2.96-2.25 1.98-3.38 4.72-3.38 8.24v13.15c0 3.58 1.1 6.34 3.29 8.29 2.19 1.95 5.33 2.92 9.4 2.92 2.78 0 5.19-.46 7.22-1.39 2.04-.93 3.77-2.35 5.19-4.26l4.26 3.61c-1.79 2.41-4.04 4.18-6.76 5.33-2.72 1.14-6.02 1.71-9.91 1.71-6.05 0-10.71-1.39-13.99-4.17ZM710.43 268.99l-1.67 5.65c-1.79-1.05-3.77-1.58-5.93-1.58-3.03 0-5.68 1.42-7.97 4.26s-3.92 6.76-4.91 11.76v22.79h-6.21v-35.66c0-1.11-.2-2.02-.6-2.73-.4-.71-1.16-1.53-2.27-2.45l4.17-3.71c1.85 1.05 3.13 2.24 3.84 3.57.71 1.33 1.07 3.17 1.07 5.51v2.41c1.42-3.64 3.38-6.47 5.88-8.48 2.5-2.01 5.36-3.01 8.57-3.01 2.28 0 4.29.56 6.02 1.67ZM740.81 306.68c2.04-.8 3.92-2.1 5.65-3.89l3.89 3.61c-1.98 2.22-4.32 3.86-7.04 4.91-2.72 1.05-6.02 1.57-9.91 1.57-5.93 0-10.54-1.4-13.85-4.21-3.3-2.81-4.96-6.75-4.96-11.81v-14.08c0-4.75 1.62-8.5 4.86-11.25s7.7-4.12 13.38-4.12 10.26 1.45 13.38 4.35c3.12 2.9 4.68 7.01 4.68 12.32 0 3.4-.63 5.73-1.9 6.99-1.27 1.27-3.63 1.9-7.08 1.9h-21.12v3.89c0 3.71 1.07 6.47 3.2 8.29 2.13 1.82 5.39 2.73 9.77 2.73 2.65 0 5-.4 7.04-1.2ZM724 275.23c-2.13 1.95-3.2 4.58-3.2 7.92v5.28h18.52c2.1 0 3.52-.35 4.26-1.06.74-.71 1.11-2.05 1.11-4.03 0-3.46-1.05-6.16-3.15-8.1-2.1-1.95-5.03-2.92-8.8-2.92s-6.62.97-8.75 2.92ZM795.96 306.73c.4.71 1.16 1.53 2.27 2.46l-4.17 3.7c-1.54-.87-2.69-1.85-3.43-2.96s-1.17-2.56-1.3-4.35c-1.61 2.35-3.8 4.15-6.58 5.42s-5.9 1.9-9.35 1.9c-4.69 0-8.31-1.1-10.84-3.29-2.53-2.19-3.8-5.36-3.8-9.49 0-3.83 1.33-6.82 3.98-8.98s6.67-3.55 12.04-4.17l7.22-.83c2.04-.25 3.57-.56 4.58-.93 1.02-.37 1.71-.91 2.08-1.62.37-.71.52-1.71.46-3.01-.56-5.74-4.57-8.61-12.04-8.61-2.78 0-5.16.45-7.13 1.34-1.98.9-3.67 2.3-5.09 4.21l-4.26-3.15c2.9-4.69 8.4-7.04 16.49-7.04 5.93 0 10.45 1.27 13.57 3.8 3.12 2.53 4.68 6.17 4.68 10.93v21.95c0 1.11.2 2.02.6 2.73Zm-10.7-1.99c2.65-2.22 3.98-5.16 3.98-8.8v-7.5c-.74.56-1.64.97-2.69 1.25s-2.5.51-4.35.69l-6.85.74c-3.52.43-6.19 1.41-8.01 2.92-1.82 1.51-2.73 3.51-2.73 5.97 0 5.37 3.39 8.06 10.19 8.06 4.32 0 7.81-1.11 10.47-3.33ZM811.2 308.72c-3.27-2.78-4.91-6.79-4.91-12.04v-13.15c0-5.12 1.67-9.11 5-11.95s8-4.26 13.99-4.26c3.64 0 6.79.59 9.45 1.76 2.65 1.17 4.94 2.96 6.85 5.37l-4.26 3.61c-1.73-2.1-3.52-3.58-5.37-4.45-1.85-.86-4.08-1.3-6.67-1.3-4.01 0-7.15.99-9.4 2.96-2.25 1.98-3.38 4.72-3.38 8.24v13.15c0 3.58 1.1 6.34 3.29 8.29 2.19 1.95 5.33 2.92 9.4 2.92 2.78 0 5.19-.46 7.22-1.39 2.04-.93 3.77-2.35 5.19-4.26l4.26 3.61c-1.79 2.41-4.04 4.18-6.76 5.33-2.72 1.14-6.02 1.71-9.91 1.71-6.05 0-10.71-1.39-13.99-4.17ZM852.6 257.22c-.87-.86-1.3-1.88-1.3-3.06s.43-2.18 1.3-3.01c.86-.83 1.88-1.25 3.06-1.25s2.18.42 3.01 1.25c.83.83 1.25 1.84 1.25 3.01s-.42 2.19-1.25 3.06c-.83.87-1.84 1.3-3.01 1.3s-2.19-.43-3.06-1.3Zm.97 52.1c-.71-1.33-1.07-3.16-1.07-5.51v-35.47h6.21V304c0 1.11.2 2.02.6 2.73.4.71 1.16 1.53 2.27 2.46l-4.08 3.7c-1.92-1.05-3.23-2.24-3.94-3.57ZM876.63 308.49c-3.24-2.93-4.86-7.05-4.86-12.37v-12.04c0-5.31 1.62-9.43 4.86-12.37 3.24-2.93 7.76-4.4 13.57-4.4s10.33 1.47 13.57 4.4c3.24 2.93 4.86 7.06 4.86 12.37v12.04c0 5.31-1.62 9.43-4.86 12.37-3.24 2.93-7.77 4.4-13.57 4.4s-10.33-1.47-13.57-4.4Zm22.6-3.66c2.13-2.04 3.2-4.94 3.2-8.71v-12.04c0-3.77-1.07-6.67-3.2-8.71-2.13-2.04-5.14-3.06-9.03-3.06s-6.9 1.02-9.03 3.06c-2.13 2.04-3.2 4.94-3.2 8.71v12.04c0 3.77 1.07 6.67 3.2 8.71 2.13 2.04 5.14 3.06 9.03 3.06s6.9-1.02 9.03-3.06Zm-4.21-57.15h6.85l-9.17 13.43h-5.09l7.41-13.43ZM952.63 271.25c2.47 2.62 3.71 6.25 3.71 10.88v29.73h-6.21v-28.81c0-3.39-.82-6.03-2.45-7.92-1.64-1.88-3.91-2.82-6.81-2.82-3.33 0-6.22 1.24-8.66 3.7-2.44 2.47-4.18 5.83-5.23 10.1v25.75h-6.21V276.2c0-1.11-.2-2.02-.6-2.73-.4-.71-1.16-1.53-2.27-2.45l4.08-3.71c1.91 1.05 3.23 2.24 3.94 3.57.71 1.33 1.07 3.17 1.07 5.51v.83c1.54-3.21 3.63-5.66 6.25-7.36 2.62-1.7 5.66-2.55 9.12-2.55 4.38 0 7.81 1.31 10.28 3.94ZM1029.83 306.73c.4.71 1.16 1.53 2.27 2.46l-4.08 3.7c-1.54-.87-2.69-1.99-3.43-3.38-.74-1.39-1.17-2.82-1.3-4.31-3.21 5.13-8.12 7.69-14.73 7.69-3.83 0-7.18-.88-10.05-2.64s-5.09-4.24-6.67-7.46c-1.57-3.21-2.36-6.95-2.36-11.21v-2.96c0-4.26.79-8 2.36-11.21 1.57-3.21 3.8-5.7 6.67-7.46s6.22-2.64 10.05-2.64c3.15 0 5.97.62 8.48 1.85 2.5 1.24 4.49 3 5.97 5.28v-20.75c0-1.11-.19-2.01-.56-2.69-.37-.68-1.14-1.54-2.32-2.59l4.26-3.61c1.79.99 3.04 2.16 3.75 3.52.71 1.36 1.07 3.21 1.07 5.56v50.11c0 1.11.2 2.02.6 2.73Zm-6.81-24.41c-1.05-3.33-2.66-5.83-4.82-7.5s-5.03-2.5-8.61-2.5c-4.2 0-7.56 1.48-10.1 4.45-2.53 2.96-3.8 6.92-3.8 11.86v2.96c0 4.94 1.26 8.89 3.8 11.86 2.53 2.96 5.9 4.45 10.1 4.45 3.58 0 6.45-.83 8.61-2.5 2.16-1.67 3.77-4.17 4.82-7.5v-15.56ZM1043.77 257.22c-.87-.86-1.3-1.88-1.3-3.06s.43-2.18 1.3-3.01c.86-.83 1.88-1.25 3.06-1.25s2.18.42 3.01 1.25c.83.83 1.25 1.84 1.25 3.01s-.42 2.19-1.25 3.06c-.83.87-1.84 1.3-3.01 1.3s-2.19-.43-3.06-1.3Zm.97 52.1c-.71-1.33-1.07-3.16-1.07-5.51v-35.47h6.21V304c0 1.11.2 2.02.6 2.73.4.71 1.16 1.53 2.27 2.46l-4.08 3.7c-1.92-1.05-3.23-2.24-3.94-3.57ZM1104.16 271.02c-1.11.93-1.87 1.75-2.27 2.45-.4.71-.6 1.62-.6 2.73v38.9c0 5.12-1.36 8.95-4.08 11.48-2.72 2.53-6.85 3.8-12.41 3.8h-11.11v-4.91h11.11c3.4 0 5.96-.88 7.69-2.64 1.73-1.76 2.59-4.34 2.59-7.73v-10.47c-1.48 2.35-3.44 4.14-5.88 5.37-2.44 1.24-5.26 1.85-8.47 1.85-5.87 0-10.53-1.91-13.99-5.74-3.46-3.83-5.19-9.01-5.19-15.56v-1.95c0-4.26.79-8 2.36-11.21 1.57-3.21 3.8-5.7 6.67-7.46s6.22-2.64 10.05-2.64c3.21 0 6.1.63 8.66 1.9 2.56 1.27 4.68 3.1 6.34 5.51 0-1.67.29-3.07.88-4.21.59-1.14 1.77-2.21 3.57-3.2l4.08 3.71Zm-13.89 33.34c2.16-1.67 3.77-4.17 4.82-7.5v-14.54c-1.05-3.33-2.66-5.83-4.82-7.5s-5.03-2.5-8.61-2.5c-4.2 0-7.56 1.48-10.1 4.45-2.53 2.96-3.8 6.92-3.8 11.86v1.95c0 4.94 1.26 8.89 3.8 11.86 2.53 2.96 5.9 4.45 10.1 4.45 3.58 0 6.45-.83 8.61-2.5ZM1116.29 257.22c-.87-.86-1.3-1.88-1.3-3.06s.43-2.18 1.3-3.01c.86-.83 1.88-1.25 3.06-1.25s2.18.42 3.01 1.25c.83.83 1.25 1.84 1.25 3.01s-.42 2.19-1.25 3.06c-.83.87-1.84 1.3-3.01 1.3s-2.19-.43-3.06-1.3Zm.97 52.1c-.71-1.33-1.07-3.16-1.07-5.51v-35.47h6.21V304c0 1.11.2 2.02.6 2.73.4.71 1.16 1.53 2.27 2.46l-4.08 3.7c-1.92-1.05-3.23-2.24-3.94-3.57ZM1142.69 273.34v25.93c0 5.5 2.41 8.24 7.22 8.24h5.28v4.91h-5.28c-4.63 0-8.03-1.07-10.19-3.2s-3.24-5.45-3.24-9.96v-41.03c0-1.11-.2-2.02-.6-2.73-.4-.71-1.16-1.53-2.27-2.45l4.17-3.71c1.85 1.05 3.13 2.24 3.84 3.57.71 1.33 1.07 3.17 1.07 5.51v9.91h12.5v5h-12.5ZM1200.25 306.73c.4.71 1.16 1.53 2.27 2.46l-4.17 3.7c-1.54-.87-2.69-1.85-3.43-2.96s-1.17-2.56-1.3-4.35c-1.61 2.35-3.8 4.15-6.58 5.42s-5.9 1.9-9.35 1.9c-4.69 0-8.31-1.1-10.84-3.29-2.53-2.19-3.8-5.36-3.8-9.49 0-3.83 1.33-6.82 3.98-8.98s6.67-3.55 12.04-4.17l7.22-.83c2.04-.25 3.57-.56 4.58-.93 1.02-.37 1.71-.91 2.08-1.62.37-.71.52-1.71.46-3.01-.56-5.74-4.57-8.61-12.04-8.61-2.78 0-5.16.45-7.13 1.34-1.98.9-3.67 2.3-5.09 4.21l-4.26-3.15c2.9-4.69 8.4-7.04 16.49-7.04 5.93 0 10.45 1.27 13.57 3.8 3.12 2.53 4.68 6.17 4.68 10.93v21.95c0 1.11.2 2.02.6 2.73Zm-10.7-1.99c2.65-2.22 3.98-5.16 3.98-8.8v-7.5c-.74.56-1.64.97-2.69 1.25s-2.5.51-4.35.69l-6.85.74c-3.52.43-6.19 1.41-8.01 2.92-1.82 1.51-2.73 3.51-2.73 5.97 0 5.37 3.39 8.06 10.19 8.06 4.32 0 7.81-1.11 10.47-3.33ZM1213.12 309.32c-.71-1.33-1.06-3.16-1.06-5.51v-50.2c0-1.17-.2-2.11-.6-2.83-.4-.71-1.16-1.5-2.27-2.36l4.08-3.71c1.91 1.05 3.23 2.24 3.94 3.57.71 1.33 1.07 3.17 1.07 5.51v50.2c0 1.11.2 2.02.6 2.73.4.71 1.16 1.53 2.27 2.46l-4.08 3.7c-1.91-1.05-3.23-2.24-3.94-3.57Z"/></g></svg>