<svg id="Layer_1" height="512" viewBox="0 0 24 24" width="512" xmlns="http://www.w3.org/2000/svg" data-name="Layer 1"><path d="M13 4h-2V0h2zm0 16h-2v4h2zm-9-9H0v2h4zm20 0h-4v2h4zm-1.125 6.165-3.458-2.01-1.006 1.729 3.458 2.01zM18.891 2.126l-1.729-1-2.01 3.459 1.729 1zm3.992 4.7-1.008-1.732-3.455 2.013 1.008 1.729zm-3.965 15.038L16.9 18.408l-1.728 1.008 2.013 3.456zM5.6 16.884l-1-1.729-3.459 2.01 1 1.729zm3.26-12.3L6.854 1.122l-1.728 1 2.01 3.459zM5.6 7.107 2.141 5.094 1.133 6.822l3.456 2.014zm3.241 12.309-1.729-1.008L5.1 21.864l1.728 1.008z"/></svg>