<svg id="Capa_2" data-name="Capa 2" xmlns="http://www.w3.org/2000/svg" viewBox="0 0 552.5 147.73"><defs><style>.cls-1{fill:#333}</style></defs><g id="Capa_1-2" data-name="Capa 1"><path class="cls-1" d="M301.2 57.73c0 30.94 25.17 56.09 56.1 56.09 14.33 0 27.96-5.38 38.4-15.17 4.1-3.84 4.31-10.28.44-14.37-3.82-4.08-10.26-4.3-14.36-.46-6.65 6.25-15.35 9.68-24.48 9.68-19.71 0-35.77-16.04-35.77-35.76s16.05-35.78 35.77-35.78c9.31 0 18.11 3.55 24.8 9.99 1.98 1.89 4.52 2.84 7.06 2.84 2.67 0 5.34-1.04 7.32-3.12 3.9-4.04 3.78-10.48-.26-14.38-10.51-10.1-24.32-15.66-38.91-15.66-30.93 0-56.1 25.18-56.1 56.1M426.04 57.73c0-20.6 16.76-37.35 37.35-37.35s37.35 16.75 37.35 37.35-16.76 37.34-37.35 37.34-37.35-16.75-37.35-37.34m-20.38 0c0 31.82 25.9 57.72 57.72 57.72s57.72-25.9 57.72-57.72S495.21 0 463.39 0s-57.72 25.9-57.72 57.73M527.98 103.31c0 6.53 5.48 11.83 12.26 11.83s12.26-5.3 12.26-11.83-5.5-11.84-12.26-11.84-12.26 5.31-12.26 11.84M282.11 49.9c.15-.45.3-.75.3-1.2 0-1.65-1.2-2.85-2.85-2.85h-9.45c-2.55 0-4.95 1.65-6 4.05l-13.05 28.96c-3 7.05-6 13.35-14.25 19.2-3 2.1-5.7 3.15-7.95 3.15-2.85 0-4.5-1.65-4.5-4.65 0-1.8.45-3.6 1.2-5.25 2.85-7.65 8.4-19.95 18-41.56.75-1.8-.6-3.9-2.55-3.9h-9.45c-2.55 0-5.1 1.65-6.15 4.05-5.55 12.15-9.3 21.01-11.55 26.26-.45 1.06-.89 2.11-1.32 3.16-.06.09-.12.19-.18.29-4.8 8.4-11.1 16.65-17.55 20.11-1.5.9-3.15 1.35-4.95 1.35-3.15 0-5.4-1.8-5.4-4.35 0-.75.15-1.5.3-1.95 3.45-9.15 9.15-22.21 19.36-44.86.75-1.95-.3-4.05-2.55-4.05h-9.45c-2.55 0-4.95 1.65-6.15 4.05-.9 2.1-1.35 3.3-1.5 3.45h-.3c-.75-1.05-1.5-2.1-2.4-3-3.45-3.45-7.2-4.8-13.65-4.8-13.2-.3-31.36 12.6-37.96 31.81-1.95 5.7-2.85 10.8-2.85 15.45v.2c-2.6 2.87-5.33 5.23-8.09 6.71a9.525 9.525 0 0 1-5.1 1.5c-1.35 0-2.55-.45-3.6-1.2-1.05-.75-1.65-1.8-1.65-3.15 0-.08.01-.18.02-.27-.06-1.65.54-3.9 2.34-6.96.47-.8 1.47-2.65 2.13-3.9s0-.01.01-.02c.21-.4.38-.72.5-.94 2.28-4.53 4.75-8.97 6.64-13.65 1.82-4.5 3.18-9.13 3.73-13.9.72-8.89-4.97-10.95-6.69-11.37-.49-.09-.98-.14-1.49-.14-4.66 0-8.43 3.78-8.43 8.43 0 2.22.88 4.21 2.28 5.71-.95 5.86-3.78 14.77-13.16 27.76-4.3 5.87-9.26 11.01-17.12 11.53-3.62.24-6.36-1.64-7.19-4.33-.12-1.03.02-2.14.47-3.27 3.41-8.49 7.1-16.86 10.72-25.26.42-.98.86-1.96 1.29-2.93.9-2.02 1.84-4.11 2.82-6.28.74-1.94-.59-3.88-2.52-3.88h-9.35c-2.82 0-5.05 1.49-6.09 3.88-.94 2.13-1.85 4.15-2.7 6.07h-.01c-1.2 2.71-2.4 5.42-3.63 8.12-2.44 5.33-4.64 10.84-7.72 15.78-3.67 5.88-8.69 10.6-15.62 12.71-2.16.66-4.65 1.01-5.86-1.03-.91-1.54-1.11-4.03-.58-5.77 1.29-4.24 3.09-8.33 4.87-12.4 4.44-10.19 8.99-20.32 13.45-30.49 1.23-2.81.14-4.39-2.99-4.43-2.68-.04-5.36 0-8.03-.01-3.15-.02-5.48 1.21-6.8 4.2-1.87 4.23-3.95 8.36-5.68 12.64-2.01 4.97-4.04 9.93-6.03 14.9-1.61 3.84-3.07 7.6-4.43 11.28-4.59 6.53-9.01 10.92-13.26 13.11-.56.27-1.04.55-1.48.83-1.9.92-3.22 2.86-3.22 5.12 0 2.88 2.14 5.25 4.92 5.63.05 0 .1.02.15.02h.04c.37.06.75.06 1.14 0h.06c.05 0 .1-.01.15-.02h.04c.5-.07.98-.21 1.42-.4.09-.04.18-.07.26-.11.37-.17.69-.33 1.34-.73 2.68-1.64 5.19-3.81 7.6-6.43 1.31 2.21 3.17 4.09 5.4 5.28 6.89 3.69 14.13 3.69 21.11.62 4.06-1.79 7.66-4.63 11.54-7.03.74.93 1.58 2.33 2.74 3.38 7.34 6.67 16.04 6.72 24.88 4.45 4.31-1.11 8.21-2.96 11.78-5.36 3.09 4.04 8.38 6.54 15.46 6.54 7.82 0 14.22-3.17 19.94-8.79 2.95 5.63 8.14 8.79 15.45 8.79s14.4-3.3 20.86-9.75c.75-.75 1.8-.3 2.25.45 2.55 5.4 9.15 9.3 17.1 9.3 8.76 0 15.51-3.85 21.73-10.86 1.96 6.15 7.83 10.5 16.53 10.86.45 0 .45.45 0 .45-11.85 3.6-19.66 8.1-21.91 16.5-.45 1.2-.6 2.55-.6 3.9 0 3.6 1.2 6.6 3.6 9 3.15 2.85 7.2 4.35 12.45 4.35 7.65 0 16.2-3.45 21.61-8.85 3.38-3.38 6.75-8.54 10.13-15.37.05-.1.1-.21.15-.31.19-.38.37-.77.56-1.16.44-.92.88-1.86 1.32-2.83l.22-.51c.11 0 .2.01.31.01 9.08 0 18.95-5.25 25.48-16.24 1.59-2.71 2.39-5.1 2.39-6.85 0-.14 0-.28-.02-.41v-.15a4.078 4.078 0 0 0-6.07-3.56c-.09.05-.18.11-.27.16h-.02c-.29.2-.55.43-.78.71-.04.05-.08.09-.12.14l-.1.13c-.12.16-.23.33-.32.51-2.38 4.1-5.07 7.26-7.92 9.48-1.88 1.66-4.46 2.92-7.14 3.54l.25-.58-.02.04.78-1.73 24.24-53.99ZM172.88 79.16c-5.7 12.45-18.91 21.01-24.76 21.01-3.6 0-5.4-2.25-5.4-6.75 0-3.15.75-6.75 2.25-10.8 3.15-8.4 8.25-15 15.3-19.96 4.05-2.55 7.65-3.9 11.1-3.9 4.2 0 6.75 1.95 6.75 6 0 2.55-1.8 7.35-5.25 14.4Zm58.67 43.96c-3.6 8.25-9 15.45-16.05 15.45-3 0-5.1-1.95-5.1-4.35 0-2.1 1.2-4.05 3.75-6 3.75-3 8.25-3.9 17.11-5.55.15 0 .45.3.3.45Z"/></g></svg>